REM MD5 e381d14428f93d4f5abcf0b7c9b7fbca
FILE "UEFA Champions League - Stagione 1998-99 (Italy).bin" BINARY
  TRACK 01 MODE2/2352
    INDEX 01 00:00:00
  TRACK 02 AUDIO
    INDEX 00 44:07:54
    INDEX 01 44:09:54
  TRACK 03 AUDIO
    INDEX 00 49:03:59
    INDEX 01 49:05:59
REM LEADOUT 54:12:11
